<svg width="200" height="63" viewBox="0 0 200 63" fill="none" xmlns="http://www.w3.org/2000/svg">
<path fill-rule="evenodd" clip-rule="evenodd" d="M95.528 25.2947H100.928V33.2562H104.136V37.9265H100.928V54.8208H95.528V37.9265H92.7658V33.2562H95.528V25.2947ZM87.449 41.3351C87.0895 40.1563 86.3877 39.1953 85.3368 38.4589C84.2824 37.7226 83.0621 37.3561 81.6689 37.3561C80.1582 37.3561 78.8411 37.771 77.6969 38.6006C76.9847 39.1157 76.3244 40.0284 75.7126 41.3351H87.449ZM92.8315 45.5595L92.8523 44.5363C92.8523 40.9825 91.791 38.134 89.6649 35.9664C87.5389 33.8058 84.7768 32.7238 81.3855 32.7238C78.1843 32.7238 75.5293 33.8058 73.4102 35.9803C71.2911 38.1478 70.2298 40.8753 70.2298 44.156C70.2298 47.3572 71.2911 50.0225 73.4102 52.1486C75.5293 54.2815 78.2776 55.3428 81.6482 55.3428C83.8192 55.3428 85.6963 54.9556 87.2796 54.1847C88.856 53.4069 90.218 52.2142 91.3485 50.6033L86.8129 48.4565C85.3645 49.8773 83.6394 50.5895 81.6205 50.5895C79.9404 50.5895 78.5542 50.1366 77.4722 49.2274C76.3901 48.3148 75.7195 47.0875 75.4671 45.5526H92.8315V45.5595ZM49.239 33.2527H54.6423V35.4721C55.866 34.4419 56.9861 33.7332 57.9783 33.3253C58.9739 32.9277 59.9971 32.7238 61.0377 32.7238C63.1776 32.7238 64.9959 33.467 66.4859 34.957C67.7373 36.2292 68.3665 38.1028 68.3665 40.5815V54.8173H63.0082V45.3902C63.0082 42.8182 62.8941 41.1139 62.6625 40.2738C62.4309 39.4269 62.0264 38.7839 61.456 38.3448C60.8821 37.9058 60.17 37.6811 59.3299 37.6811C58.2341 37.6811 57.2938 38.0475 56.5056 38.777C55.7209 39.5064 55.1781 40.5227 54.8739 41.8087C54.7183 42.4863 54.6354 43.9417 54.6354 46.1818V54.8173H49.2356V33.2527H49.239ZM35.8363 37.8021C34.1493 37.8021 32.7492 38.3829 31.6326 39.5479C30.516 40.7198 29.9525 42.2063 29.9525 44.0281C29.9525 45.8949 30.5091 47.4125 31.6119 48.5706C32.7147 49.7287 34.1147 50.3094 35.8156 50.3094C37.5095 50.3094 38.9165 49.7218 40.0469 48.5498C41.1704 47.3779 41.7339 45.8707 41.7339 44.0281C41.7339 42.1786 41.1773 40.6852 40.0746 39.5271C38.9718 38.3759 37.5544 37.8021 35.8363 37.8021ZM35.7568 32.7272C37.793 32.7272 39.7081 33.2354 41.5023 34.2518C43.3034 35.2681 44.6965 36.6405 45.706 38.3794C46.7154 40.1252 47.2167 42.0023 47.2167 44.0177C47.2167 46.047 46.7085 47.9449 45.6991 49.7114C44.6827 51.4779 43.3034 52.8572 41.5576 53.8528C39.8049 54.8485 37.8828 55.3497 35.7775 55.3497C32.6766 55.3497 30.032 54.2538 27.8438 52.0587C25.6521 49.86 24.5527 47.1912 24.5527 44.0592C24.5527 40.6956 25.7903 37.892 28.269 35.6518C30.4434 33.7021 32.9325 32.7272 35.7568 32.7272Z" fill="#0098DA"/>
<path fill-rule="evenodd" clip-rule="evenodd" d="M110.089 33.2527V35.6207C111.064 34.6597 112.118 33.9268 113.255 33.4497C114.393 32.9692 115.609 32.7238 116.902 32.7238C119.713 32.7238 122.102 33.785 124.072 35.9042C126.043 38.0302 127.024 40.7509 127.024 44.073C127.024 47.2742 126.008 49.9533 123.972 52.107C121.939 54.2676 119.53 55.3428 116.743 55.3428C115.506 55.3428 114.348 55.1181 113.276 54.679C112.208 54.24 111.143 53.514 110.089 52.5046V62.6923H104.689V33.2492H110.089V33.2527ZM115.762 37.6811C114.064 37.6811 112.647 38.2618 111.53 39.4199C110.407 40.5849 109.847 42.0991 109.847 43.9762C109.847 45.8914 110.407 47.4436 111.53 48.6189C112.647 49.8047 114.061 50.3924 115.762 50.3924C117.414 50.3924 118.8 49.7909 119.931 48.5913C121.061 47.3848 121.621 45.8568 121.621 43.997C121.621 42.1475 121.068 40.6333 119.955 39.4545C118.852 38.2687 117.452 37.6811 115.762 37.6811ZM145.091 33.2527H150.494V54.8173H145.091V52.5219C144.036 53.5244 142.971 54.24 141.91 54.6825C140.849 55.1215 139.691 55.3462 138.45 55.3462C135.653 55.3462 133.243 54.2711 131.207 52.1105C129.171 49.9568 128.155 47.2776 128.155 44.0765C128.155 40.7543 129.144 38.0302 131.114 35.9076C133.084 33.7885 135.473 32.7272 138.287 32.7272C139.587 32.7272 140.797 32.9692 141.934 33.4532C143.072 33.9337 144.119 34.6631 145.087 35.6242V33.2527H145.091ZM139.397 37.6811C137.717 37.6811 136.324 38.2687 135.221 39.4545C134.111 40.6333 133.555 42.1475 133.555 43.997C133.555 45.8568 134.115 47.3883 135.245 48.5913C136.376 49.7909 137.762 50.3924 139.414 50.3924C141.112 50.3924 142.529 49.8047 143.646 48.6189C144.769 47.4401 145.333 45.8914 145.333 43.9762C145.333 42.1025 144.769 40.5849 143.646 39.4199C142.532 38.2618 141.112 37.6811 139.397 37.6811ZM151.164 33.2527H156.716L162.299 46.7556L168.487 33.2527H174.025L160.536 62.6958H154.998L159.385 53.2271L151.164 33.2527Z" fill="#EC268F"/>
<path fill-rule="evenodd" clip-rule="evenodd" d="M194.968 15.6532L199.856 15.024C201.087 24.5618 194.287 33.2976 184.666 34.5387C175.049 35.7797 166.254 29.0525 165.024 19.5146C163.793 9.97684 170.593 1.24106 180.21 0L180.812 4.65309C179.615 4.80174 178.423 5.1267 177.268 5.64179C170.9 8.47306 168.052 15.9747 170.907 22.3978C173.763 28.8208 181.24 31.7316 187.611 28.9003C192.842 26.5703 195.697 21.0945 194.968 15.6532Z" fill="#0098DA"/>
<path fill-rule="evenodd" clip-rule="evenodd" d="M182.454 8.91211C187.11 8.91211 190.885 12.7182 190.885 17.4163C190.885 22.1143 187.11 25.9204 182.454 25.9204C177.797 25.9204 174.022 22.1143 174.022 17.4163C174.022 12.7182 177.797 8.91211 182.454 8.91211ZM182.454 12.739C179.892 12.739 177.815 14.8339 177.815 17.4163C177.815 19.9986 179.889 22.0936 182.454 22.0936C185.015 22.0936 187.093 19.9986 187.093 17.4163C187.093 14.8305 185.019 12.739 182.454 12.739Z" fill="#0098DA"/>
<path d="M10.7836 26.0795H5.00696V41.1104H10.7836V26.0795Z" stroke="#EBF7FC" stroke-width="3.7851" stroke-miterlimit="2.6131"/>
<path d="M10.7836 26.076H5.00696V41.1069H10.7836V26.076Z" fill="#0098DA"/>
<path d="M10.78 40.5953H5.00342V55.2529H10.78V40.5953Z" stroke="#EBF7FC" stroke-width="3.7956" stroke-miterlimit="2.6131"/>
<path d="M10.7836 40.5988H5.00696V55.2564H10.7836V40.5988Z" fill="#A8CF45"/>
<path fill-rule="evenodd" clip-rule="evenodd" d="M5.04504 37.491L10.7905 37.4598L27.1524 55.2391L21.3793 55.2529L5.04504 37.491Z" stroke="#EBF7FC" stroke-width="3.7692" stroke-miterlimit="2.6131"/>
<path fill-rule="evenodd" clip-rule="evenodd" d="M5.04504 37.491L10.7905 37.4598L27.1524 55.2391L21.3793 55.2529L5.04504 37.491Z" fill="#FF0000"/>
<path fill-rule="evenodd" clip-rule="evenodd" d="M5 43.9036L10.7248 43.9244L27.1281 26.076H21.3792L5 43.9036Z" stroke="#EBF7FC" stroke-width="3.7692" stroke-miterlimit="2.6131"/>
<path fill-rule="evenodd" clip-rule="evenodd" d="M5 43.9036L10.7248 43.9244L27.1281 26.076H21.3792L5 43.9036Z" fill="#FFCC29"/>
</svg>
