<svg width="143" height="49" viewBox="0 0 143 49" fill="none" xmlns="http://www.w3.org/2000/svg">
<path d="M9.1824 48.9974C8.81291 48.9974 8.45235 48.9924 8.08576 48.9837C7.32634 48.9733 6.56869 48.9034 5.81904 48.7748C5.12002 48.6476 4.44286 48.4111 3.8099 48.073C3.18274 47.7376 2.61072 47.2979 2.11575 46.7707C1.61362 46.2497 1.19557 45.6454 0.878169 44.9818C0.557274 44.3139 0.335196 43.598 0.21967 42.859C0.0949117 42.0649 0.0274125 41.262 0.0177541 40.4572C0.0100655 40.187 0 39.2875 0 39.2875V9.69616C0 9.69616 0.0107204 8.81048 0.0178147 8.55028C0.0270626 7.7467 0.0941693 6.94502 0.218554 6.1522C0.334293 5.41118 0.556544 4.69318 0.877612 4.02308C1.19384 3.35994 1.60957 2.75521 2.10868 2.23234C2.60723 1.7045 3.18108 1.26254 3.80931 0.922574C4.44082 0.585527 5.11669 0.350646 5.8143 0.225798C6.56641 0.0958635 7.32669 0.0256146 8.08874 0.0156408L9.18299 0H133.811L134.918 0.0162685C135.674 0.0257467 136.427 0.0953689 137.172 0.224543C137.877 0.350956 138.56 0.587477 139.198 0.926327C140.457 1.61145 141.481 2.69539 142.127 4.02621C142.443 4.69168 142.662 5.40382 142.776 6.13844C142.902 6.93777 142.972 7.74574 142.987 8.55591C142.99 8.91869 142.99 9.30836 142.99 9.69616C143 10.1765 143 10.6338 143 11.0947V37.9039C143 38.3693 143 38.8234 142.99 39.2812C142.99 39.6978 142.99 40.0794 142.986 40.4721C142.972 41.2679 142.902 42.0614 142.778 42.8464C142.665 43.5908 142.444 44.3123 142.124 44.9857C141.804 45.6421 141.388 46.2411 140.892 46.7607C140.397 47.2908 139.824 47.733 139.195 48.0705C138.558 48.4113 137.876 48.6487 137.172 48.7748C136.423 48.9041 135.665 48.974 134.905 48.9837C134.55 48.9924 134.178 48.9974 133.817 48.9974L132.502 49L9.1824 48.9974Z" fill="#0D2333"/>
<path d="M36.7973 24.5804C36.8081 23.7458 37.0298 22.9274 37.4418 22.2014C37.8538 21.4755 38.4428 20.8655 39.1539 20.4284C38.7021 19.7832 38.1062 19.2523 37.4134 18.8777C36.7205 18.5031 35.9499 18.2953 35.1627 18.2707C33.4835 18.0944 31.8555 19.2755 30.9998 19.2755C30.1275 19.2755 28.81 18.2882 27.3913 18.3174C26.4736 18.347 25.5793 18.6139 24.7954 19.0919C24.0115 19.57 23.3649 20.2429 22.9184 21.0452C20.9844 24.3937 22.427 29.3147 24.2796 32.0213C25.2065 33.3467 26.2898 34.8271 27.7072 34.7746C29.0943 34.7171 29.6123 33.8901 31.2866 33.8901C32.9454 33.8901 33.4314 34.7746 34.8776 34.7412C36.366 34.7171 37.3038 33.41 38.1981 32.0721C38.8641 31.1277 39.3766 30.084 39.7166 28.9796C38.8518 28.6139 38.1139 28.0017 37.5948 27.2194C37.0757 26.4371 36.7983 25.5193 36.7973 24.5804Z" fill="white"/>
<path d="M34.0659 16.4906C34.8774 15.5164 35.2772 14.2642 35.1804 13C33.9406 13.1302 32.7953 13.7228 31.9728 14.6596C31.5707 15.1173 31.2627 15.6497 31.0664 16.2265C30.8702 16.8033 30.7896 17.413 30.8291 18.021C31.4493 18.0274 32.0628 17.893 32.6234 17.6279C33.1841 17.3628 33.6773 16.9739 34.0659 16.4906Z" fill="white"/>
<path d="M53.875 30.7026H49.1416L48.0049 34.0591H46L50.4834 21.6411H52.5664L57.0498 34.0591H55.0107L53.875 30.7026ZM49.6318 29.1538H53.3838L51.5342 23.7065H51.4825L49.6318 29.1538Z" fill="white"/>
<path d="M66.7325 29.5327C66.7325 32.3462 65.2266 34.1538 62.9541 34.1538C62.3785 34.1839 61.806 34.0513 61.3022 33.7712C60.7984 33.491 60.3837 33.0747 60.1055 32.5698H60.0625V37.0542H58.2041V25.0054H60.003V26.5112H60.0371C60.3281 26.0088 60.7498 25.5946 61.2575 25.3127C61.7651 25.0309 62.3396 24.8919 62.92 24.9106C65.2178 24.9106 66.7325 26.727 66.7325 29.5327ZM64.8223 29.5327C64.8223 27.6997 63.875 26.4946 62.4297 26.4946C61.0098 26.4946 60.0547 27.7251 60.0547 29.5327C60.0547 31.3569 61.0098 32.5786 62.4297 32.5786C63.875 32.5786 64.8223 31.3823 64.8223 29.5327Z" fill="white"/>
<path d="M76.6973 29.5327C76.6973 32.3462 75.1914 34.1538 72.919 34.1538C72.3433 34.1839 71.7708 34.0513 71.267 33.7712C70.7632 33.491 70.3485 33.0747 70.0703 32.5698H70.0273V37.0542H68.1689V25.0054H69.9678V26.5112H70.0019C70.2929 26.0088 70.7146 25.5946 71.2223 25.3127C71.7299 25.0309 72.3044 24.8919 72.8848 24.9106C75.1826 24.9106 76.6973 26.727 76.6973 29.5327ZM74.7871 29.5327C74.7871 27.6997 73.8399 26.4946 72.3946 26.4946C70.9746 26.4946 70.0196 27.7251 70.0196 29.5327C70.0196 31.3569 70.9746 32.5786 72.3946 32.5786C73.8399 32.5786 74.7871 31.3823 74.7871 29.5327H74.7871Z" fill="white"/>
<path d="M83.2832 30.5991C83.4209 31.8306 84.6172 32.6391 86.252 32.6391C87.8184 32.6391 88.9453 31.8305 88.9453 30.7202C88.9453 29.7563 88.2657 29.1792 86.6563 28.7836L85.0469 28.3959C82.7666 27.8452 81.708 26.7788 81.708 25.0483C81.708 22.9057 83.5752 21.434 86.2266 21.434C88.8506 21.434 90.6494 22.9057 90.71 25.0483H88.834C88.7217 23.809 87.6973 23.061 86.2002 23.061C84.7031 23.061 83.6787 23.8178 83.6787 24.9194C83.6787 25.7973 84.333 26.3139 85.9336 26.7094L87.3018 27.0453C89.8496 27.6479 90.9082 28.6713 90.9082 30.4877C90.9082 32.8109 89.0576 34.266 86.1143 34.266C83.3603 34.266 81.501 32.8451 81.3809 30.599L83.2832 30.5991Z" fill="white"/>
<path d="M94.9189 22.8628V25.0054H96.6406V26.477H94.9189V31.4682C94.9189 32.2436 95.2637 32.605 96.0205 32.605C96.2249 32.6014 96.429 32.587 96.6318 32.562V34.0249C96.2916 34.0884 95.9457 34.1172 95.5996 34.1108C93.7666 34.1108 93.0518 33.4223 93.0518 31.6665V26.477H91.7354V25.0054H93.0517V22.8628H94.9189Z" fill="white"/>
<path d="M97.6377 29.5327C97.6377 26.6841 99.3154 24.894 101.932 24.894C104.557 24.894 106.227 26.684 106.227 29.5327C106.227 32.3892 104.565 34.1714 101.932 34.1714C99.2988 34.1714 97.6377 32.3892 97.6377 29.5327ZM104.333 29.5327C104.333 27.5786 103.437 26.4253 101.932 26.4253C100.426 26.4253 99.5312 27.5874 99.5312 29.5327C99.5312 31.4946 100.426 32.6392 101.932 32.6392C103.437 32.6392 104.333 31.4946 104.333 29.5327H104.333Z" fill="white"/>
<path d="M107.759 25.0054H109.531V26.5464H109.574C109.694 26.0651 109.976 25.6397 110.373 25.3419C110.769 25.044 111.256 24.8917 111.752 24.9106C111.966 24.9099 112.18 24.9331 112.389 24.98V26.7182C112.118 26.6356 111.836 26.5977 111.554 26.6059C111.284 26.595 111.015 26.6426 110.765 26.7455C110.515 26.8484 110.29 27.0041 110.106 27.202C109.922 27.3999 109.783 27.6352 109.699 27.8919C109.615 28.1486 109.587 28.4205 109.617 28.6889V34.0591H107.759L107.759 25.0054Z" fill="white"/>
<path d="M120.957 31.3999C120.707 33.0434 119.106 34.1714 117.059 34.1714C114.425 34.1714 112.79 32.4067 112.79 29.5757C112.79 26.7358 114.434 24.894 116.98 24.894C119.485 24.894 121.061 26.6147 121.061 29.3598V29.9966H114.666V30.1089C114.637 30.4421 114.678 30.7777 114.788 31.0936C114.899 31.4094 115.075 31.6982 115.305 31.9407C115.535 32.1833 115.815 32.3741 116.124 32.5004C116.434 32.6267 116.767 32.6856 117.102 32.6733C117.541 32.7145 117.981 32.6128 118.358 32.3833C118.735 32.1539 119.027 31.809 119.192 31.3999L120.957 31.3999ZM114.675 28.6977H119.201C119.218 28.3981 119.172 28.0983 119.068 27.8171C118.963 27.5359 118.801 27.2794 118.593 27.0636C118.384 26.8478 118.133 26.6775 117.856 26.5633C117.579 26.4491 117.28 26.3934 116.98 26.3999C116.678 26.3981 116.378 26.4562 116.098 26.571C115.818 26.6857 115.563 26.8548 115.349 27.0684C115.134 27.282 114.965 27.536 114.849 27.8157C114.733 28.0953 114.674 28.3951 114.675 28.6977V28.6977Z" fill="white"/>
<path d="M52.0667 13.3776C52.0849 13.7446 52.0282 14.1114 51.9001 14.4557C51.772 14.8 51.5751 15.1147 51.3215 15.3805C51.0373 15.6753 50.6941 15.9067 50.3142 16.0597C49.9344 16.2127 49.5266 16.2837 49.1174 16.2682C48.7056 16.2719 48.2973 16.1932 47.9163 16.0368C47.5354 15.8805 47.1895 15.6495 46.8991 15.3575C46.6087 15.0656 46.3796 14.7185 46.2253 14.3367C46.0709 13.9549 45.9944 13.5462 46.0003 13.1344C45.9945 12.7227 46.071 12.3139 46.2253 11.9321C46.3797 11.5503 46.6088 11.2032 46.8992 10.9112C47.1896 10.6192 47.5354 10.3882 47.9163 10.2318C48.2973 10.0753 48.7056 9.99654 49.1174 10.0001C49.5408 9.99884 49.9599 10.0844 50.3489 10.2516C50.7102 10.3981 51.0317 10.6278 51.2874 10.922L50.76 11.4498C50.559 11.2133 50.3064 11.0261 50.0216 10.9026C49.7368 10.7792 49.4274 10.7228 49.1174 10.7379C48.8053 10.7363 48.4961 10.7977 48.2083 10.9184C47.9205 11.0391 47.6601 11.2167 47.4425 11.4404C47.225 11.6642 47.0548 11.9295 46.9423 12.2206C46.8297 12.5117 46.777 12.8225 46.7874 13.1344C46.78 13.6016 46.9114 14.0605 47.1651 14.4529C47.4188 14.8453 47.7833 15.1535 48.2124 15.3384C48.6415 15.5234 49.1159 15.5767 49.5753 15.4917C50.0348 15.4067 50.4587 15.1872 50.7932 14.861C51.1011 14.5293 51.2796 14.0979 51.2961 13.6456H49.1174V12.9249H52.0247C52.0522 13.0743 52.0663 13.2258 52.0667 13.3776Z" fill="white" stroke="white" stroke-width="0.2" stroke-miterlimit="10"/>
<path d="M56.6762 10.8717H53.9438V12.774H56.4077V13.4948H53.9438V15.3971H56.6762V16.1344H53.1733V10.1344H56.6762V10.8717Z" fill="white" stroke="white" stroke-width="0.2" stroke-miterlimit="10"/>
<path d="M59.9273 16.1344H59.1558V10.8717H57.48V10.1344H61.6031V10.8717H59.9273V16.1344Z" fill="white" stroke="white" stroke-width="0.2" stroke-miterlimit="10"/>
<path d="M64.5864 16.1344V10.1344H65.3569V16.1344H64.5864Z" fill="white" stroke="white" stroke-width="0.2" stroke-miterlimit="10"/>
<path d="M68.7768 16.1344H68.0053V10.8717H66.3296V10.1344H70.4526V10.8717H68.7768V16.1344Z" fill="white" stroke="white" stroke-width="0.2" stroke-miterlimit="10"/>
<path d="M78.2576 15.359C77.6736 15.9413 76.8826 16.2682 76.0579 16.2682C75.2333 16.2682 74.4422 15.9413 73.8582 15.359C73.5693 15.0664 73.3422 14.7187 73.1904 14.3365C73.0385 13.9543 72.9651 13.5455 72.9744 13.1344C72.9651 12.7233 73.0385 12.3145 73.1904 11.9323C73.3422 11.5502 73.5693 11.2024 73.8582 10.9098C74.1469 10.6211 74.4896 10.3921 74.8669 10.236C75.2442 10.0799 75.6485 9.99976 76.0568 10.0001C76.4651 10.0005 76.8693 10.0814 77.2462 10.2381C77.6232 10.3949 77.9656 10.6245 78.2537 10.9137C78.5428 11.2056 78.7704 11.5525 78.9229 11.934C79.0754 12.3155 79.1497 12.7237 79.1414 13.1344C79.1505 13.5455 79.0769 13.9542 78.9251 14.3364C78.7733 14.7185 78.5463 15.0662 78.2576 15.359ZM74.4275 14.8566C74.86 15.2884 75.4463 15.5309 76.0574 15.5309C76.6686 15.5309 77.2548 15.2884 77.6873 14.8566C77.9091 14.6295 78.0826 14.3598 78.1972 14.0638C78.3119 13.7678 78.3653 13.4517 78.3543 13.1344C78.3653 12.8172 78.3119 12.501 78.1972 12.205C78.0826 11.909 77.9091 11.6393 77.6873 11.4122C77.2548 10.9804 76.6686 10.7379 76.0574 10.7379C75.4463 10.7379 74.86 10.9804 74.4275 11.4122C74.206 11.6395 74.0328 11.9092 73.9184 12.2052C73.8039 12.5012 73.7506 12.8173 73.7615 13.1344C73.7506 13.4516 73.8039 13.7677 73.9184 14.0636C74.0328 14.3596 74.206 14.6294 74.4275 14.8566Z" fill="white" stroke="white" stroke-width="0.2" stroke-miterlimit="10"/>
<path d="M80.2236 16.1344V10.1344H81.1621L84.0781 14.8019H84.1113L84.0781 13.6456V10.1344H84.8496V16.1344H84.0449L80.9941 11.2408H80.9609L80.9941 12.3971V16.1344H80.2236Z" fill="white" stroke="white" stroke-width="0.2" stroke-miterlimit="10"/>
</svg>
