<svg width="89" height="89" viewBox="0 0 89 89" fill="none" xmlns="http://www.w3.org/2000/svg">
<rect width="89" height="89" rx="20" fill="#0098DA"/>
<path d="M59.5833 38.75C59.5833 41.7708 58.6875 44.5417 57.1458 46.8542C54.8958 50.1875 51.3333 52.5416 47.1875 53.1458C46.4791 53.2708 45.75 53.3333 45 53.3333C44.25 53.3333 43.5208 53.2708 42.8125 53.1458C38.6666 52.5416 35.1041 50.1875 32.8541 46.8542C31.3125 44.5417 30.4166 41.7708 30.4166 38.75C30.4166 30.6875 36.9375 24.1666 45 24.1666C53.0625 24.1666 59.5833 30.6875 59.5833 38.75Z" stroke="white" stroke-width="3" stroke-linecap="round" stroke-linejoin="round"/>
<path d="M64.2708 58.4792L60.8333 59.2916C60.0625 59.4791 59.4583 60.0625 59.2917 60.8334L58.5625 63.8959C58.1667 65.5625 56.0417 66.0625 54.9375 64.75L45 53.3333L35.0625 64.7708C33.9583 66.0833 31.8333 65.5833 31.4375 63.9166L30.7083 60.8541C30.5208 60.0833 29.9167 59.4792 29.1667 59.3125L25.7292 58.5C24.1458 58.125 23.5833 56.1458 24.7292 55L32.8542 46.875C35.1042 50.2083 38.6667 52.5625 42.8125 53.1667C43.5208 53.2917 44.25 53.3542 45 53.3542C45.75 53.3542 46.4792 53.2917 47.1875 53.1667C51.3333 52.5625 54.8958 50.2083 57.1458 46.875L65.2708 55C66.4167 56.125 65.8542 58.1042 64.2708 58.4792Z" stroke="white" stroke-width="3" stroke-linecap="round" stroke-linejoin="round"/>
<path d="M46.2084 32.4584L47.4375 34.9167C47.6042 35.25 48.0417 35.5834 48.4375 35.6459L50.6667 36.0209C52.0834 36.25 52.4167 37.2917 51.3959 38.3125L49.6667 40.0417C49.375 40.3333 49.2084 40.8959 49.3125 41.3125L49.8125 43.4584C50.2084 45.1459 49.3125 45.8125 47.8125 44.9167L45.7292 43.6875C45.3542 43.4583 44.7292 43.4583 44.3542 43.6875L42.2709 44.9167C40.7709 45.7917 39.875 45.1459 40.2709 43.4584L40.7709 41.3125C40.8542 40.9167 40.7084 40.3333 40.4167 40.0417L38.6875 38.3125C37.6667 37.2917 38 36.2709 39.4167 36.0209L41.6459 35.6459C42.0209 35.5834 42.4584 35.25 42.625 34.9167L43.8542 32.4584C44.4584 31.125 45.5417 31.125 46.2084 32.4584Z" stroke="white" stroke-width="3" stroke-linecap="round" stroke-linejoin="round"/>
</svg>
