<svg width="89" height="89" viewBox="0 0 89 89" fill="none" xmlns="http://www.w3.org/2000/svg">
<rect width="89" height="89" rx="20" fill="#0098DA"/>
<path d="M35.5833 58.2291L42.0416 63.2291C42.8749 64.0625 44.7499 64.4791 45.9999 64.4791H53.9166C56.4166 64.4791 59.1249 62.6041 59.7499 60.1041L64.7499 44.8958C65.7916 41.9791 63.9166 39.4791 60.7916 39.4791H52.4583C51.2083 39.4791 50.1666 38.4375 50.3749 36.9791L51.4166 30.3125C51.8333 28.4375 50.5833 26.3541 48.7083 25.7291C47.0416 25.1041 44.9583 25.9375 44.1249 27.1875L35.5833 39.8958" stroke="white" stroke-width="3" stroke-miterlimit="10"/>
<path d="M24.9584 58.2292V37.8126C24.9584 34.8959 26.2084 33.8542 29.125 33.8542H31.2084C34.125 33.8542 35.375 34.8959 35.375 37.8126V58.2292C35.375 61.1459 34.125 62.1876 31.2084 62.1876H29.125C26.2084 62.1876 24.9584 61.1459 24.9584 58.2292Z" stroke="white" stroke-width="3" stroke-linecap="round" stroke-linejoin="round"/>
</svg>
