<svg width="30" height="30" viewBox="0 0 30 30" fill="none" xmlns="http://www.w3.org/2000/svg">
<path d="M11.9625 15.575L8.15002 19.3875" stroke="#0D2333" stroke-width="2" stroke-miterlimit="10" stroke-linecap="round" stroke-linejoin="round"/>
<path d="M8.1875 15.6125L12 19.425" stroke="#0D2333" stroke-width="2" stroke-miterlimit="10" stroke-linecap="round" stroke-linejoin="round"/>
<path d="M16.9125 17.5H16.925" stroke="#0D2333" stroke-width="2" stroke-miterlimit="10" stroke-linecap="round" stroke-linejoin="round"/>
<path d="M21.8375 17.5H21.85" stroke="#0D2333" stroke-width="2" stroke-miterlimit="10" stroke-linecap="round" stroke-linejoin="round"/>
<path d="M19.375 19.975V19.95" stroke="#0D2333" stroke-width="2" stroke-miterlimit="10" stroke-linecap="round" stroke-linejoin="round"/>
<path d="M19.375 15.05V15.025" stroke="#0D2333" stroke-width="2" stroke-miterlimit="10" stroke-linecap="round" stroke-linejoin="round"/>
<path d="M11.25 27.5H18.75C25 27.5 27.5 25 27.5 18.75V16.25C27.5 10 25 7.5 18.75 7.5H11.25C5 7.5 2.5 10 2.5 16.25V18.75C2.5 25 5 27.5 11.25 27.5Z" stroke="#0D2333" stroke-width="2" stroke-linecap="round" stroke-linejoin="round"/>
<path d="M16.2625 2.5L16.25 3.7625C16.2375 4.45 15.6875 5 15 5H14.9625C14.275 5 13.725 5.5625 13.725 6.25C13.725 6.9375 14.2875 7.5 14.975 7.5H16.225" stroke="#0D2333" stroke-width="2" stroke-linecap="round" stroke-linejoin="round"/>
</svg>
