<svg width="146" height="50" viewBox="0 0 146 50" fill="none" xmlns="http://www.w3.org/2000/svg">
<path d="M140.593 0H5.40741C2.42098 0 0 2.79822 0 6.25V43.75C0 47.2018 2.42098 50 5.40741 50H140.593C143.579 50 146 47.2018 146 43.75V6.25C146 2.79822 143.579 0 140.593 0Z" fill="#0D2333"/>
<path d="M52.4495 14.3776C52.4677 14.7446 52.411 15.1114 52.2829 15.4557C52.1548 15.8 51.9579 16.1147 51.7043 16.3805C51.4201 16.6753 51.0769 16.9067 50.6971 17.0597C50.3172 17.2127 49.9094 17.2837 49.5002 17.2682C49.0884 17.2719 48.6801 17.1932 48.2991 17.0368C47.9182 16.8805 47.5724 16.6495 47.2819 16.3575C46.9915 16.0656 46.7624 15.7185 46.6081 15.3367C46.4537 14.9549 46.3772 14.5462 46.3831 14.1344C46.3773 13.7227 46.4538 13.3139 46.6082 12.9321C46.7625 12.5503 46.9916 12.2032 47.282 11.9112C47.5724 11.6192 47.9182 11.3882 48.2992 11.2318C48.6801 11.0753 49.0884 10.9965 49.5002 11.0001C49.9236 10.9988 50.3427 11.0844 50.7317 11.2516C51.093 11.3981 51.4146 11.6278 51.6702 11.922L51.1428 12.4498C50.9418 12.2133 50.6892 12.0261 50.4044 11.9026C50.1196 11.7792 49.8103 11.7228 49.5002 11.7379C49.1881 11.7363 48.879 11.7977 48.5912 11.9184C48.3034 12.0391 48.0429 12.2167 47.8253 12.4404C47.6078 12.6642 47.4376 12.9295 47.3251 13.2206C47.2125 13.5117 47.1598 13.8225 47.1702 14.1344C47.1628 14.6016 47.2943 15.0605 47.5479 15.4529C47.8016 15.8453 48.1662 16.1535 48.5953 16.3384C49.0243 16.5234 49.4987 16.5767 49.9582 16.4917C50.4176 16.4067 50.8415 16.1872 51.176 15.861C51.4839 15.5293 51.6624 15.0979 51.6789 14.6456H49.5002V13.9249H52.4075C52.435 14.0743 52.4491 14.2258 52.4495 14.3776Z" fill="white" stroke="white" stroke-width="0.2" stroke-miterlimit="10"/>
<path d="M57.0591 11.8717H54.3267V13.774H56.7906V14.4948H54.3267V16.3971H57.0591V17.1344H53.5562V11.1344H57.0591V11.8717Z" fill="white" stroke="white" stroke-width="0.2" stroke-miterlimit="10"/>
<path d="M60.3101 17.1344H59.5386V11.8717H57.8628V11.1344H61.9859V11.8717H60.3101V17.1344Z" fill="white" stroke="white" stroke-width="0.2" stroke-miterlimit="10"/>
<path d="M64.9692 17.1344V11.1344H65.7397V17.1344H64.9692Z" fill="white" stroke="white" stroke-width="0.2" stroke-miterlimit="10"/>
<path d="M69.1596 17.1344H68.3881V11.8717H66.7124V11.1344H70.8354V11.8717H69.1596V17.1344Z" fill="white" stroke="white" stroke-width="0.2" stroke-miterlimit="10"/>
<path d="M78.6404 16.359C78.0564 16.9413 77.2654 17.2682 76.4407 17.2682C75.6161 17.2682 74.825 16.9413 74.241 16.359C73.9521 16.0664 73.725 15.7187 73.5732 15.3365C73.4213 14.9543 73.3479 14.5455 73.3572 14.1344C73.3479 13.7233 73.4213 13.3145 73.5732 12.9323C73.725 12.5502 73.9521 12.2024 74.241 11.9098C74.5297 11.6211 74.8725 11.3921 75.2497 11.236C75.627 11.0799 76.0313 10.9998 76.4396 11.0001C76.8479 11.0005 77.2521 11.0814 77.629 11.2381C78.006 11.3949 78.3484 11.6245 78.6365 11.9137C78.9257 12.2056 79.1532 12.5525 79.3057 12.934C79.4582 13.3155 79.5325 13.7237 79.5242 14.1344C79.5333 14.5455 79.4598 14.9542 79.3079 15.3364C79.1561 15.7185 78.9291 16.0662 78.6404 16.359ZM74.8103 15.8566C75.2429 16.2884 75.8291 16.5309 76.4402 16.5309C77.0514 16.5309 77.6376 16.2884 78.0701 15.8566C78.2919 15.6295 78.4654 15.3598 78.58 15.0638C78.6947 14.7678 78.7481 14.4517 78.7371 14.1344C78.7481 13.8172 78.6947 13.501 78.58 13.205C78.4654 12.909 78.2919 12.6393 78.0701 12.4122C77.6376 11.9804 77.0514 11.7379 76.4402 11.7379C75.8291 11.7379 75.2429 11.9804 74.8103 12.4122C74.5888 12.6395 74.4157 12.9092 74.3012 13.2052C74.1867 13.5012 74.1334 13.8173 74.1443 14.1344C74.1334 14.4516 74.1867 14.7677 74.3012 15.0636C74.4157 15.3596 74.5888 15.6294 74.8103 15.8566Z" fill="white" stroke="white" stroke-width="0.2" stroke-miterlimit="10"/>
<path d="M80.6064 17.1344V11.1344H81.5449L84.4609 15.8019H84.4941L84.4609 14.6456V11.1344H85.2324V17.1344H84.4277L81.3769 12.2408H81.3437L81.3769 13.3971V17.1344H80.6064Z" fill="white" stroke="white" stroke-width="0.2" stroke-miterlimit="10"/>
<path d="M73.1671 25.886C72.3266 25.8892 71.5059 26.1414 70.8086 26.6106C70.1113 27.0799 69.5686 27.7453 69.2492 28.5227C68.9298 29.3002 68.8478 30.1548 69.0138 30.9788C69.1797 31.8028 69.586 32.5591 70.1815 33.1523C70.777 33.7455 71.5348 34.149 72.3594 34.3118C73.184 34.4746 74.0384 34.3894 74.8146 34.067C75.5908 33.7446 76.2541 33.1995 76.7208 32.5004C77.1874 31.8013 77.4364 30.9796 77.4364 30.1391C77.4447 29.5769 77.3398 29.0188 77.1279 28.498C76.9161 27.9772 76.6017 27.5043 76.2034 27.1075C75.805 26.7107 75.331 26.3981 74.8094 26.1883C74.2878 25.9784 73.7293 25.8756 73.1671 25.886ZM73.1671 32.7168C72.6495 32.7537 72.1327 32.6339 71.6842 32.373C71.2356 32.1122 70.8759 31.7222 70.652 31.2541C70.4281 30.7859 70.3504 30.2612 70.4289 29.7483C70.5074 29.2353 70.7385 28.7578 71.0921 28.3781C71.4458 27.9983 71.9056 27.7338 72.4117 27.619C72.9178 27.5042 73.4467 27.5444 73.9296 27.7345C74.4125 27.9245 74.827 28.2555 75.1191 28.6844C75.4113 29.1133 75.5675 29.6202 75.5675 30.1391C75.5832 30.467 75.5332 30.7946 75.4203 31.1028C75.3075 31.411 75.1341 31.6936 74.9105 31.9338C74.6868 32.174 74.4173 32.367 74.1179 32.5015C73.8185 32.6359 73.4952 32.7092 73.1671 32.7168ZM63.8537 25.886C63.0132 25.8892 62.1925 26.1413 61.4952 26.6106C60.7978 27.0799 60.2552 27.7452 59.9357 28.5227C59.6163 29.3001 59.5343 30.1548 59.7003 30.9788C59.8662 31.8027 60.2725 32.5591 60.868 33.1523C61.4634 33.7455 62.2213 34.149 63.0459 34.3118C63.8705 34.4746 64.7249 34.3894 65.5011 34.067C66.2773 33.7447 66.9406 33.1995 67.4073 32.5004C67.8739 31.8013 68.1229 30.9796 68.1229 30.1391C68.1312 29.5769 68.0263 29.0189 67.8144 28.4981C67.6026 27.9773 67.2882 27.5044 66.8899 27.1076C66.4916 26.7108 66.0175 26.3981 65.4959 26.1883C64.9743 25.9784 64.4159 25.8756 63.8537 25.886ZM63.8537 32.7168C63.3361 32.7537 62.8193 32.6339 62.3708 32.373C61.9222 32.1122 61.5625 31.7222 61.3386 31.2541C61.1147 30.7859 61.037 30.2612 61.1155 29.7483C61.194 29.2353 61.4251 28.7578 61.7787 28.3781C62.1324 27.9983 62.5922 27.7338 63.0983 27.619C63.6044 27.5042 64.1333 27.5444 64.6162 27.7345C65.0991 27.9245 65.5136 28.2555 65.8057 28.6844C66.0979 29.1133 66.2541 29.6202 66.2541 30.1391C66.2698 30.467 66.2198 30.7946 66.107 31.1028C65.9941 31.4111 65.8208 31.6936 65.5971 31.9338C65.3734 32.174 65.1039 32.367 64.8045 32.5015C64.5051 32.636 64.1818 32.7092 63.8537 32.7168ZM52.7749 27.191V28.9953H57.0926C57.0303 29.8416 56.684 30.6421 56.1098 31.2669C55.6771 31.7079 55.1568 32.0534 54.5824 32.2809C54.008 32.5084 53.3922 32.613 52.7749 32.5879C51.5129 32.5708 50.3084 32.0575 49.422 31.159C48.5356 30.2605 48.0386 29.0491 48.0386 27.787C48.0386 26.5249 48.5356 25.3135 49.422 24.415C50.3084 23.5165 51.5129 23.0032 52.7749 22.9861C53.9871 22.9703 55.1566 23.4334 56.0293 24.2749L57.302 23.0022C56.7066 22.4127 55.9994 21.9481 55.2221 21.6354C54.4447 21.3228 53.6127 21.1686 52.7749 21.1817C51.8994 21.169 51.0301 21.3304 50.2175 21.6566C49.405 21.9829 48.6654 22.4674 48.0417 23.082C47.4181 23.6966 46.9229 24.4291 46.5848 25.2368C46.2468 26.0445 46.0728 26.9114 46.0728 27.787C46.0728 28.6626 46.2468 29.5295 46.5848 30.3372C46.9229 31.1449 47.4181 31.8774 48.0417 32.492C48.6654 33.1067 49.405 33.5912 50.2175 33.9174C51.0301 34.2436 51.8994 34.4051 52.7749 34.3923C53.6304 34.4278 54.4836 34.2809 55.278 33.9615C56.0724 33.6421 56.7897 33.1574 57.3825 32.5396C58.4349 31.3909 58.9959 29.8758 58.9453 28.3187C58.9494 27.9406 58.917 27.5629 58.8485 27.191H52.7749ZM98.0832 28.5925C97.8276 27.8221 97.3411 27.1491 96.6897 26.6649C96.0382 26.1807 95.2536 25.9087 94.4422 25.886C93.8958 25.8894 93.3557 26.0036 92.8546 26.2216C92.3535 26.4397 91.9018 26.757 91.5268 27.1546C91.1519 27.5521 90.8614 28.0216 90.6731 28.5346C90.4847 29.0475 90.4023 29.5934 90.4308 30.1391C90.4185 30.6983 90.519 31.2542 90.7264 31.7737C90.9337 32.2931 91.2436 32.7655 91.6376 33.1625C92.0316 33.5595 92.5016 33.873 93.0194 34.0843C93.5373 34.2956 94.0925 34.4004 94.6517 34.3923C95.3524 34.3962 96.043 34.226 96.6616 33.897C97.2802 33.568 97.8074 33.0905 98.1959 32.5074L96.746 31.5408C96.5288 31.9015 96.2215 32.1996 95.8544 32.4058C95.4872 32.6119 95.0728 32.7191 94.6517 32.7168C94.2184 32.7334 93.7901 32.6194 93.4224 32.3896C93.0547 32.1598 92.7645 31.8248 92.5895 31.428L98.2766 29.0759L98.0832 28.5925ZM92.2835 30.0103C92.2635 29.7008 92.3054 29.3903 92.4068 29.0971C92.5082 28.804 92.667 28.534 92.8741 28.303C93.0811 28.0719 93.3321 27.8845 93.6124 27.7517C93.8927 27.6188 94.1967 27.5432 94.5066 27.5293C94.8293 27.5081 95.1511 27.5823 95.4319 27.7428C95.7126 27.9032 95.94 28.1427 96.0855 28.4315L92.2835 30.0103ZM87.6597 34.1345H89.5285V21.6329H87.6597V34.1345ZM84.5987 26.8365H84.5343C84.2502 26.5278 83.9035 26.2834 83.5173 26.1194C83.1311 25.9555 82.7143 25.8759 82.2949 25.886C81.1982 25.9327 80.1619 26.4012 79.4024 27.1937C78.6429 27.9862 78.2189 29.0415 78.2189 30.1392C78.2189 31.2369 78.6429 32.2921 79.4024 33.0846C80.1619 33.8771 81.1982 34.3456 82.2949 34.3923C82.716 34.4035 83.1345 34.3228 83.5212 34.1559C83.9079 33.989 84.2537 33.7398 84.5343 33.4257H84.5987V34.0379C84.5987 35.6651 83.7288 36.535 82.3271 36.535C81.86 36.5238 81.4068 36.3738 81.0252 36.1041C80.6436 35.8344 80.3509 35.4572 80.1845 35.0206L78.5573 35.6973C78.864 36.444 79.3866 37.0821 80.0583 37.5298C80.7299 37.9776 81.5199 38.2146 82.3271 38.2105C84.5182 38.2105 86.3709 36.9217 86.3709 33.7801V26.1437H84.5987V26.8365ZM82.4561 32.7168C81.8102 32.662 81.2084 32.3668 80.7698 31.8894C80.3312 31.412 80.0878 30.7874 80.0878 30.1392C80.0878 29.4909 80.3312 28.8663 80.7698 28.3889C81.2084 27.9116 81.8102 27.6163 82.4561 27.5615C82.7775 27.5772 83.0924 27.6574 83.3821 27.7974C83.6718 27.9374 83.9303 28.1343 84.1423 28.3763C84.3542 28.6184 84.5153 28.9006 84.6159 29.2062C84.7164 29.5119 84.7544 29.8346 84.7276 30.1552C84.7527 30.4738 84.7134 30.7943 84.6118 31.0973C84.5102 31.4004 84.3486 31.6798 84.1365 31.919C83.9245 32.1581 83.6663 32.352 83.3776 32.4891C83.0889 32.6262 82.7755 32.7036 82.4561 32.7168ZM106.837 21.6331H102.366V34.1345H104.232V29.3981H106.837C107.365 29.427 107.893 29.3481 108.389 29.166C108.885 28.984 109.339 28.7027 109.723 28.3393C110.107 27.976 110.413 27.5382 110.622 27.0527C110.831 26.5672 110.938 26.0442 110.938 25.5156C110.938 24.9871 110.831 24.4641 110.622 23.9786C110.413 23.4931 110.107 23.0553 109.723 22.6919C109.339 22.3285 108.885 22.0472 108.389 21.8652C107.893 21.6831 107.365 21.6042 106.837 21.6331ZM106.885 27.6583H104.232V23.373H106.885C107.17 23.3671 107.454 23.4182 107.719 23.5232C107.984 23.6282 108.226 23.7851 108.429 23.9846C108.633 24.1842 108.795 24.4224 108.905 24.6853C109.016 24.9482 109.073 25.2305 109.073 25.5157C109.073 25.8008 109.016 26.0831 108.905 26.346C108.795 26.6089 108.633 26.8471 108.429 27.0467C108.226 27.2462 107.984 27.4031 107.719 27.5081C107.454 27.6132 107.17 27.6642 106.885 27.6583ZM118.417 25.863C117.736 25.8233 117.058 25.9832 116.467 26.3232C115.875 26.6631 115.396 27.1684 115.088 27.7769L116.744 28.4685C116.909 28.1665 117.157 27.9189 117.46 27.7561C117.763 27.5932 118.107 27.5222 118.449 27.5517C118.922 27.5055 119.395 27.6488 119.763 27.9503C120.13 28.2518 120.364 28.6868 120.411 29.16V29.2887C119.812 28.9704 119.144 28.8047 118.465 28.8062C116.68 28.8062 114.863 29.7873 114.863 31.6208C114.88 32.0072 114.975 32.3862 115.141 32.7353C115.308 33.0844 115.543 33.3964 115.832 33.6529C116.122 33.9094 116.46 34.1052 116.827 34.2285C117.193 34.3519 117.581 34.4003 117.967 34.371C118.436 34.3987 118.905 34.2999 119.324 34.0849C119.742 33.8699 120.096 33.5466 120.347 33.1487H120.411V34.1137H122.213V29.3209C122.213 27.1014 120.556 25.863 118.417 25.863ZM118.192 32.7144C117.581 32.7144 116.728 32.4089 116.728 31.6529C116.728 30.688 117.79 30.318 118.707 30.318C119.302 30.3022 119.891 30.4466 120.411 30.7362C120.343 31.2785 120.08 31.7775 119.672 32.1412C119.264 32.5048 118.738 32.7085 118.192 32.7144ZM128.775 26.1364L126.636 31.5564H126.571L124.352 26.1364H122.341L125.671 33.7116L123.773 37.9254H125.719L130.849 26.1364H128.775ZM111.968 34.1345H113.833V21.6331H111.968V34.1345Z" fill="white"/>
<path d="M15.4664 12.4067C15.1385 12.7988 14.9729 13.3014 15.0036 13.8116V35.9277C14.9729 36.438 15.1384 36.9406 15.4664 37.3326L15.5404 37.4047L27.9294 25.0158V24.7235L15.5404 12.3341L15.4664 12.4067Z" fill="url(#paint0_linear)"/>
<path d="M32.0591 29.1472L27.9297 25.0158V24.7235L32.0601 20.5931L32.1532 20.6462L37.046 23.4263C38.4436 24.2203 38.4436 25.5195 37.046 26.314L32.1532 29.0941L32.0591 29.1472Z" fill="url(#paint1_linear)"/>
<path d="M32.1533 29.0936L27.9298 24.8697L15.4668 37.3326C15.7516 37.5838 16.1152 37.7274 16.4948 37.7386C16.8743 37.7498 17.2458 37.6279 17.5449 37.394L32.1533 29.0936Z" fill="url(#paint2_linear)"/>
<path d="M32.1533 20.6457L17.5449 12.3453C17.2458 12.1114 16.8743 11.9895 16.4948 12.0007C16.1152 12.0119 15.7516 12.1556 15.4668 12.4067L27.9298 24.8697L32.1533 20.6457Z" fill="url(#paint3_linear)"/>
<defs>
<linearGradient id="paint0_linear" x1="26.8308" y1="13.5784" x2="10.0484" y2="30.3609" gradientUnits="userSpaceOnUse">
<stop stop-color="#00A0FF"/>
<stop offset="0.00657" stop-color="#00A1FF"/>
<stop offset="0.2601" stop-color="#00BEFF"/>
<stop offset="0.5122" stop-color="#00D2FF"/>
<stop offset="0.7604" stop-color="#00DFFF"/>
<stop offset="1" stop-color="#00E3FF"/>
</linearGradient>
<linearGradient id="paint1_linear" x1="38.8657" y1="24.8702" x2="14.6688" y2="24.8702" gradientUnits="userSpaceOnUse">
<stop stop-color="#FFE000"/>
<stop offset="0.4087" stop-color="#FFBD00"/>
<stop offset="0.7754" stop-color="#FFA500"/>
<stop offset="1" stop-color="#FF9C00"/>
</linearGradient>
<linearGradient id="paint2_linear" x1="29.8583" y1="27.1648" x2="7.10007" y2="49.9231" gradientUnits="userSpaceOnUse">
<stop stop-color="#FF3A44"/>
<stop offset="1" stop-color="#C31162"/>
</linearGradient>
<linearGradient id="paint3_linear" x1="12.3287" y1="5.04489" x2="22.4912" y2="15.2074" gradientUnits="userSpaceOnUse">
<stop stop-color="#32A071"/>
<stop offset="0.0685" stop-color="#2DA771"/>
<stop offset="0.4762" stop-color="#15CF74"/>
<stop offset="0.8009" stop-color="#06E775"/>
<stop offset="1" stop-color="#00F076"/>
</linearGradient>
</defs>
</svg>
