<svg width="33" height="33" viewBox="0 0 33 33" fill="none" xmlns="http://www.w3.org/2000/svg">
<path d="M13.2686 18.975L15.4823 20.6938C15.7711 20.9825 16.4173 21.1199 16.8436 21.1199H19.5661C20.4186 21.1199 21.3536 20.4737 21.5736 19.6212L23.2923 14.4099C23.6498 13.4062 23.0036 12.5537 21.9311 12.5537H19.0711C18.6448 12.5537 18.2873 12.1962 18.3561 11.7012L18.7136 9.41867C18.8511 8.77242 18.4248 8.0574 17.7786 7.85115C17.2011 7.63115 16.4861 7.91988 16.2111 8.34613L13.2823 12.7049" stroke="white" stroke-width="2" stroke-miterlimit="10"/>
<path d="M9.625 18.9751V11.9762C9.625 10.9725 10.0512 10.615 11.055 10.615H11.77C12.7737 10.615 13.2 10.9725 13.2 11.9762V18.9751C13.2 19.9788 12.7737 20.3363 11.77 20.3363H11.055C10.0512 20.3363 9.625 19.9788 9.625 18.9751Z" stroke="white" stroke-width="2" stroke-linecap="round" stroke-linejoin="round"/>
<path d="M24.75 25.9325H23.705C22.605 25.9325 21.56 26.3588 20.79 27.1288L18.4388 29.4526C17.3663 30.5113 15.62 30.5113 14.5475 29.4526L12.1962 27.1288C11.4262 26.3588 10.3675 25.9325 9.28125 25.9325H8.25C5.9675 25.9325 4.125 24.1038 4.125 21.8488V6.8475C4.125 4.5925 5.9675 2.76379 8.25 2.76379H24.75C27.0325 2.76379 28.875 4.5925 28.875 6.8475V21.8488C28.875 24.0901 27.0325 25.9325 24.75 25.9325Z" stroke="white" stroke-width="2" stroke-miterlimit="10" stroke-linecap="round" stroke-linejoin="round"/>
</svg>
