<svg width="30" height="30" viewBox="0 0 30 30" fill="none" xmlns="http://www.w3.org/2000/svg">
<path d="M21.25 25.625H8.75C5 25.625 2.5 23.75 2.5 19.375V10.625C2.5 6.25 5 4.375 8.75 4.375H21.25C25 4.375 27.5 6.25 27.5 10.625V19.375C27.5 23.75 25 25.625 21.25 25.625Z" stroke="#0D2333" stroke-width="2" stroke-miterlimit="10" stroke-linecap="round" stroke-linejoin="round"/>
<path d="M15 18.75C17.0711 18.75 18.75 17.0711 18.75 15C18.75 12.9289 17.0711 11.25 15 11.25C12.9289 11.25 11.25 12.9289 11.25 15C11.25 17.0711 12.9289 18.75 15 18.75Z" stroke="#0D2333" stroke-width="2" stroke-miterlimit="10" stroke-linecap="round" stroke-linejoin="round"/>
<path d="M10.625 7.5H8.75C7.025 7.5 5.625 8.9 5.625 10.625V12.5" stroke="#0D2333" stroke-width="2" stroke-miterlimit="10" stroke-linecap="round" stroke-linejoin="round"/>
<path d="M19.375 7.5H21.25C22.975 7.5 24.375 8.9 24.375 10.625V12.5" stroke="#0D2333" stroke-width="2" stroke-miterlimit="10" stroke-linecap="round" stroke-linejoin="round"/>
<path d="M10.625 22.5H8.75C7.025 22.5 5.625 21.1 5.625 19.375V17.5" stroke="#0D2333" stroke-width="2" stroke-miterlimit="10" stroke-linecap="round" stroke-linejoin="round"/>
<path d="M19.375 22.5H21.25C22.975 22.5 24.375 21.1 24.375 19.375V17.5" stroke="#0D2333" stroke-width="2" stroke-miterlimit="10" stroke-linecap="round" stroke-linejoin="round"/>
</svg>
