<svg width="30" height="30" viewBox="0 0 30 30" fill="none" xmlns="http://www.w3.org/2000/svg">
<path d="M16.25 13.9375H8.75" stroke="#0D2333" stroke-width="2" stroke-linecap="round" stroke-linejoin="round"/>
<path d="M2.5 13.9375V8.16255C2.5 5.61255 4.5625 3.55005 7.1125 3.55005H14.1375C16.6875 3.55005 18.75 5.13755 18.75 7.68755" stroke="#0D2333" stroke-width="2" stroke-linecap="round" stroke-linejoin="round"/>
<path d="M21.85 15.25C21.225 15.85 20.925 16.775 21.175 17.725C21.4875 18.8875 22.6375 19.625 23.8375 19.625H25V21.4375C25 24.2 22.7625 26.4375 20 26.4375H7.5C4.7375 26.4375 2.5 24.2 2.5 21.4375V12.6875C2.5 9.925 4.7375 7.6875 7.5 7.6875H20C22.75 7.6875 25 9.9375 25 12.6875V14.4999H23.65C22.95 14.4999 22.3125 14.775 21.85 15.25Z" stroke="#0D2333" stroke-width="2" stroke-linecap="round" stroke-linejoin="round"/>
<path d="M27.5 15.775V18.35C27.5 19.05 26.925 19.625 26.2125 19.625H23.8C22.45 19.625 21.2125 18.6376 21.1 17.2876C21.025 16.5001 21.325 15.7625 21.85 15.25C22.3125 14.775 22.95 14.5 23.65 14.5H26.2125C26.925 14.5 27.5 15.075 27.5 15.775Z" stroke="#0D2333" stroke-width="2" stroke-linecap="round" stroke-linejoin="round"/>
</svg>
