<svg width="85" height="85" viewBox="0 0 85 85" fill="none" xmlns="http://www.w3.org/2000/svg">
<circle cx="42.5" cy="42.5" r="42.5" fill="#0D2333" fill-opacity="0.2"/>
<path d="M44.6667 40.5834H34.6667" stroke="#0D2333" stroke-width="2" stroke-linecap="round" stroke-linejoin="round"/>
<path d="M26.3333 40.5834V32.8834C26.3333 29.4834 29.0833 26.7334 32.4833 26.7334H41.8499C45.2499 26.7334 47.9999 28.85 47.9999 32.25" stroke="#0D2333" stroke-width="2" stroke-linecap="round" stroke-linejoin="round"/>
<path d="M52.1332 42.3333C51.2999 43.1333 50.8999 44.3666 51.2333 45.6333C51.6499 47.1833 53.1833 48.1667 54.7833 48.1667H56.3332V50.5834C56.3332 54.2667 53.3499 57.25 49.6666 57.25H32.9999C29.3166 57.25 26.3333 54.2667 26.3333 50.5834V38.9167C26.3333 35.2334 29.3166 32.25 32.9999 32.25H49.6666C53.3332 32.25 56.3332 35.25 56.3332 38.9167V41.3333H54.5332C53.5999 41.3333 52.7499 41.7 52.1332 42.3333Z" stroke="#0D2333" stroke-width="2" stroke-linecap="round" stroke-linejoin="round"/>
<path d="M59.6667 43.0333V46.4667C59.6667 47.4 58.9 48.1667 57.95 48.1667H54.7333C52.9333 48.1667 51.2834 46.85 51.1334 45.05C51.0334 44 51.4333 43.0167 52.1333 42.3334C52.75 41.7 53.6 41.3333 54.5333 41.3333H57.95C58.9 41.3333 59.6667 42.1 59.6667 43.0333Z" stroke="#0D2333" stroke-width="2" stroke-linecap="round" stroke-linejoin="round"/>
</svg>
